<?xml version="1.0" encoding="UTF-8"?>
<svg id="Layer_1" data-name="Layer 1" xmlns="http://www.w3.org/2000/svg" viewBox="0 0 1080 1080">
  <g>
    <path d="M457.75,781.4c-11.14-37.57-31.67-72.07-59.38-99.78-27.71-27.71-62.21-48.24-99.78-59.38L21.18,540l277.42-82.25c37.57-11.14,72.07-31.67,99.78-59.38s48.24-62.21,59.38-99.78L540,21.18l82.25,277.42c11.14,37.57,31.67,72.07,59.38,99.78,27.71,27.71,62.21,48.24,99.78,59.38l277.42,82.25-277.42,82.25c-37.57,11.14-72.07,31.67-99.78,59.38-27.71,27.71-48.24,62.21-59.38,99.78l-82.25,277.42-82.25-277.42Z" style="fill: #c77dff;"/>
    <path d="M540,22.94l81.77,275.81c11.16,37.65,31.74,72.22,59.5,99.99,27.77,27.77,62.34,48.34,99.99,59.5l275.81,81.77-275.81,81.77c-37.65,11.16-72.22,31.74-99.99,59.5-27.77,27.77-48.34,62.34-59.5,99.99l-81.77,275.81-81.77-275.81c-11.16-37.65-31.74-72.22-59.5-99.99-27.77-27.77-62.34-48.34-99.99-59.5L22.94,540l275.81-81.77c37.65-11.16,72.22-31.74,99.99-59.5,27.77-27.77,48.34-62.34,59.5-99.99L540,22.94M540,19.42l-82.72,279.04c-22.65,76.4-82.41,136.16-158.81,158.81L19.42,540l279.04,82.72c76.4,22.65,136.16,82.41,158.81,158.81l82.72,279.04,82.72-279.04c22.65-76.4,82.41-136.16,158.81-158.81l279.04-82.72-279.04-82.72c-76.4-22.65-136.16-82.41-158.81-158.81L540,19.42h0Z" style="fill: #fff;"/>
  </g>
  <ellipse cx="540" cy="540" rx="540" ry="12.78" style="fill: #00f5ff;"/>
  <ellipse cx="540" cy="540" rx="12.78" ry="540" style="fill: #00f5ff;"/>
</svg>